<?xml version="1.0" encoding="UTF-8"?>
<svg width="752pt" height="752pt" version="1.1" viewBox="0 0 752 752" xmlns="http://www.w3.org/2000/svg">
 <path d="m570.41 290.23c-4.7344-33.152-28.082-47.359-60.617-43.855-42.621 4.7344-72.41 37.461-100.59 66.301-13.117 13.543-26.379 26.711-38.453 41.152-8.5234 10.184-14.207 22.543-21.738 32.488-6.1562 8.625 6.3945 19.469 12.785 10.852 11.793-16.055 29.031-32.488 42.621-47.359 24.25-25.383 49.727-57.398 81.602-73.262 13.496-6.7266 35.328-13.781 50.012-6.6289 26.188 12.738 10.988 50.957-1.9414 66.586-25.812 30.922-53.422 60.52-81.363 89.551-25.668 26.617-51.938 52.551-78.805 77.809-16.102 15.156-28.414 31.492-53.75 22.73v0.003906c-4.5391-1.625-8.9297-3.6367-13.121-6.0156 23.348-12.551 47.359-24.672 68.289-40.586h0.003906c1.6016-1.4609 1.9141-3.8633 0.74609-5.6914-1.1719-1.8242-3.4844-2.543-5.4844-1.6953-24.344 12.883-46.602 29.316-69.758 44.281-7.8125-4.9727-15.25-10.75-22.305-16.242 22.777-13.832 49.535-21.551 69.047-40.73 4.7344-4.7344-2.4141-11.461-7.3867-7.1992-20.508 17.523-45.086 28.414-66.301 44.328-8.8555-6.8672-18.375-14.207-27.043-22.305v-0.003906c7.8164-3.6914 15.434-7.7852 22.828-12.266 11.934-6.5352 23.68-13.07 35.094-20.742 4.7344-3.2188 0-11.461-5.1602-8.8086-11.508 5.8711-22.449 12.738-33.152 19.652h-0.003906c-8.7773 4.8828-17.184 10.41-25.145 16.531-4.6641-4.75-8.8828-9.918-12.598-15.441 13.641-10.988 33.434-13.688 46.316-25.762 1.4688-1.2734 1.7734-3.4375 0.70703-5.0625-1.0664-1.6289-3.168-2.2148-4.9219-1.3789-16.57 6.3281-31.809 15.691-44.945 27.609-4.7188-8.0195-7.4766-17.043-8.0508-26.332 8.7734-3.5352 16.988-8.3203 24.391-14.207 1.6211-1.1484 2.0039-3.3984 0.85156-5.0195-1.1484-1.6211-3.3984-2.0039-5.0195-0.85156-5.8711 3.2188-11.367 7.0547-17.145 10.418l-2.8906 1.6094h0.003906c0.23047-2.4492 0.60938-4.8867 1.1367-7.293 1.4766-8.293 5.9375-15.762 12.543-20.996 6.6016-5.2344 14.891-7.8711 23.305-7.418 8.2422 0.61719 17.477 9.1875 24.152 14.207 17.129 12.031 33.469 25.145 48.922 39.262 1.3086 1.4883 3.5781 1.6367 5.0664 0.33203 0.71875-0.62891 1.1562-1.5156 1.2188-2.4648 0.058594-0.95312-0.25781-1.8867-0.88672-2.6055-17.285-25.383-42.715-62.605-74.352-70.324-29.93-7.293-56.07 17.805-61.848 45.559-8.2422 39.496 15.059 71.039 43.711 94.715l16.621 14.02c-0.050781 0.75391 0.26172 1.4922 0.83984 1.9766 0.58203 0.48828 1.3633 0.66797 2.0977 0.48438 21.691 17.855 47.359 36.18 73.359 37.602 14.207 0.75781 23.965-6.582 34.098-15.438 19.371-16.859 37.887-35.188 56.023-53.23 32.582-32.016 64.027-65.164 94.715-98.977 24.059-26.617 57.637-53.988 51.668-93.867z"/>
</svg>
