<?xml version="1.0" encoding="UTF-8"?>
<svg width="752pt" height="752pt" version="1.1" viewBox="0 0 752 752" xmlns="http://www.w3.org/2000/svg">
 <g>
  <path d="m513.73 527.94c-3.0312 0-6.0586-1.1562-8.3711-3.4648l-278.23-278.23c-4.625-4.6211-4.625-12.117 0-16.742 4.6211-4.625 12.125-4.625 16.742 0l278.23 278.23c4.625 4.625 4.625 12.117 0 16.742-2.3164 2.3086-5.3398 3.4648-8.3711 3.4648z"/>
  <path d="m235.5 527.94c-3.0312 0-6.0625-1.1562-8.3711-3.4648-4.625-4.625-4.625-12.117 0-16.742l278.23-278.23c4.625-4.625 12.117-4.625 16.742 0 4.625 4.6211 4.625 12.117 0 16.742l-278.23 278.23c-2.3086 2.3086-5.3398 3.4648-8.3711 3.4648z"/>
 </g>
</svg>
