<?xml version="1.0" encoding="UTF-8"?>
<svg width="752pt" height="752pt" version="1.1" viewBox="0 0 752 752" xmlns="http://www.w3.org/2000/svg">
 <g fill="white">
  <path d="m507.78 242.43c10.555 10.98 10.176 28.453-0.84766 38.965l-94.926 90.523c10.84-10.238 28.777-9.7422 39.168 1.418 9.4805 10.18 8.3555 25.715-1.7148 35.223l-12.91 12.191c12.578-11.875 34.707-9.3086 43.52 7.6016 6.1172 11.734 3.043 25.871-6.6797 35.051l-14.086 13.301c10.422-9.8438 27.41-9.7617 37.938 0.17969l0.035157 0.03125c11.48 10.84 11.555 28.34 0.17578 39.09l-52.988 50.039c-37.504 35.414-98.566 35.172-136.39-0.54297l-42.992-40.598c-29.531-27.887-36.961-70.359-18.438-105.37 13.668-24.824 17.41-49.539 12.352-77.312-1.7422-8.8477 1.1992-17.887 7.8789-24.191 16.035-15.145 43.688-7.4766 48.93 13.566l8.3242 48.047 9.6836-9.1445 135.16-128.91c10.961-10.453 28.312-10.078 38.809 0.83984z"/>
  <path d="m331.93 233.95 0.51172-74.398 26.816 0.18359-0.51172 74.398z"/>
  <path d="m372.99 238.47 47.992-47.938 18.953 18.973-47.992 47.938z"/>
  <path d="m250.93 211.51 18.91-19.016 47.363 47.098-18.91 19.016z"/>
 </g>
</svg>
