<?xml version="1.0" encoding="UTF-8"?>
<svg width="752pt" height="752pt" version="1.1" viewBox="0 0 752 752" xmlns="http://www.w3.org/2000/svg" fill="white">
 <path d="m569.79 402.9-1.1367-8.9023c-12.312-89.035-43.758-136.2-91.305-136.58-16.973-1.0352-33.742 4.1523-47.168 14.586h-108.36c-13.441-10.406-30.199-15.586-47.168-14.586-47.547 0.37891-78.992 47.547-91.305 136.58l-1.1367 8.9023c-4.168 27.848-10.039 66.113 7.0078 85.246v-0.003907c6.6523 7.3594 16.227 11.383 26.141 10.988h1.1367c41.484-0.94531 62.891-37.316 79.941-66.492 3.2188-5.4922 6.4414-10.988 9.6602-15.914v0.003907c2.4961-4.375 1.1289-9.9375-3.1055-12.66-4.2383-2.7266-9.8633-1.6562-12.809 2.4297-3.4102 5.1133-6.6289 10.797-10.039 16.672-16.289 27.656-33.152 56.258-64.027 57.016-4.7109 0.55469-9.4062-1.1289-12.691-4.543-11.176-12.691-5.6836-48.496-2.4609-69.902l1.3242-9.0938c7.3867-54.746 26.141-119.91 72.363-120.29 12.156-0.66406 24.195 2.6641 34.285 9.4727l0.75781 33.527c0.16406 5.1328 4.3398 9.2266 9.4727 9.2852h113.66c2.5117 0 4.9219-1 6.6953-2.7734 1.7773-1.7773 2.7773-4.1875 2.7773-6.6992v-32.773c10.082-7.4727 22.531-11.039 35.043-10.039 46.223 0.37891 64.977 65.543 72.363 120.29l1.3242 9.0938c3.2188 21.406 8.7148 57.207-2.4609 69.902-3.2031 3.5391-7.9688 5.2461-12.691 4.543-30.879-0.75781-47.738-29.363-64.027-57.02-3.4102-5.8711-6.6289-11.555-10.039-16.672l-0.003906 0.003906c-2.9414-4.0859-8.5703-5.1562-12.805-2.4297-4.2383 2.7227-5.6016 8.2852-3.1055 12.66 3.2188 4.9258 6.4414 10.418 9.6602 15.914 17.051 29.172 38.453 65.543 79.941 66.492h1.1367v-0.003907c9.9102 0.39453 19.488-3.6289 26.141-10.988 17.051-19.133 11.176-57.398 7.0078-85.242zm-146.43-93.203h-94.906l-0.37891-18.754h95.285zm-85.246 56.828v0.003906c-7.5352 0-14.762 2.9922-20.09 8.3203-5.3281 5.3281-8.3242 12.559-8.3242 20.094 0 7.5352 2.9961 14.762 8.3242 20.09 5.3281 5.332 12.555 8.3242 20.09 8.3242 7.5391 0 14.766-2.9922 20.094-8.3242 5.3281-5.3281 8.3242-12.555 8.3242-20.09 0-7.5352-2.9961-14.766-8.3242-20.094-5.3281-5.3281-12.555-8.3203-20.094-8.3203zm0 37.887v0.003907c-3.8281 0-7.2812-2.3086-8.75-5.8477-1.4648-3.5391-0.65625-7.6133 2.0547-10.324 2.707-2.707 6.7812-3.5195 10.32-2.0508 3.5391 1.4648 5.8477 4.918 5.8477 8.75 0 2.5117-0.99609 4.9219-2.7734 6.6953-1.7773 1.7773-4.1836 2.7773-6.6992 2.7773zm75.773-37.887v0.003906c-7.5352 0-14.762 2.9922-20.09 8.3203-5.332 5.3281-8.3242 12.559-8.3242 20.094 0 7.5352 2.9922 14.762 8.3242 20.09 5.3281 5.332 12.555 8.3242 20.09 8.3242 7.5391 0 14.766-2.9922 20.094-8.3242 5.3281-5.3281 8.3242-12.555 8.3242-20.09 0-7.5352-2.9961-14.766-8.3242-20.094-5.3281-5.3281-12.555-8.3203-20.094-8.3203zm0 37.887v0.003907c-3.8281 0-7.2852-2.3086-8.75-5.8477-1.4648-3.5391-0.65625-7.6133 2.0547-10.324 2.707-2.707 6.7812-3.5195 10.32-2.0508 3.5391 1.4648 5.8477 4.918 5.8477 8.75 0 2.5117-0.99609 4.9219-2.7734 6.6953-1.7773 1.7773-4.1875 2.7773-6.6992 2.7773zm-161.02-47.355v-9.4727h-9.4727c-5.2305 0-9.4727-4.2383-9.4727-9.4727 0-5.2305 4.2422-9.4688 9.4727-9.4688h9.4727v-9.4727c0-5.2305 4.2383-9.4727 9.4727-9.4727 5.2305 0 9.4688 4.2422 9.4688 9.4727v9.4727h9.4727c5.2305 0 9.4727 4.2383 9.4727 9.4688 0 5.2344-4.2422 9.4727-9.4727 9.4727h-9.4727v9.4727c0 5.2305-4.2383 9.4727-9.4688 9.4727-5.2344 0-9.4727-4.2422-9.4727-9.4727zm209.13-34.305c-0.54297-1.1172-0.80078-2.3438-0.75781-3.582-0.027344-2.5156 1.0039-4.9297 2.8398-6.6484 3.6836-3.6094 9.5781-3.6094 13.262 0 1.8398 1.7188 2.8711 4.1328 2.8398 6.6484 0.027344 1.2344-0.23438 2.4609-0.75781 3.582-0.39453 1.1914-1.1133 2.2461-2.082 3.0469-1.707 1.8438-4.1172 2.875-6.6289 2.8438-1.2461 0.042969-2.4805-0.21875-3.6016-0.75781-1.1758-0.41406-2.2227-1.1328-3.0312-2.0859-0.96484-0.80078-1.6875-1.8555-2.082-3.0469zm46.602 24.832c-5.1797-0.12891-9.3438-4.293-9.4727-9.4727-0.027343-2.5156 1.0039-4.9297 2.8398-6.6484 0.80469-0.94922 1.8516-1.6641 3.0312-2.0625 3.5234-1.3672 7.5156-0.5625 10.23 2.0625 1.8398 1.7188 2.8711 4.1328 2.8398 6.6484 0.046875 1.2383-0.21484 2.4688-0.75781 3.582-0.39453 1.1914-1.1133 2.25-2.082 3.0508-0.80859 0.94922-1.8555 1.668-3.0312 2.082-1.1211 0.53906-2.3555 0.80078-3.5977 0.75781z"/>
</svg>
