<?xml version="1.0" encoding="UTF-8"?>
<svg width="752pt" height="752pt" version="1.1" viewBox="0 0 752 752" xmlns="http://www.w3.org/2000/svg">
 <g>
  <path d="m383.67 263.24c-2.9062-1.6133-6.1875-2.4297-9.5156-2.3711-3.3242 0.054687-6.5742 0.98828-9.4258 2.7031l-77.336 47.074h-21.121c-11.305 0-22.145 4.4883-30.141 12.484-7.9922 7.9922-12.48 18.832-12.48 30.137v45.465c0 11.305 4.4883 22.145 12.48 30.137 7.9961 7.9922 18.836 12.484 30.141 12.484h21.121l77.195 47.074c3.8477 2.3438 8.4062 3.2383 12.855 2.5234 4.4453-0.71484 8.4961-2.9922 11.418-6.4219 2.918-3.4336 4.5234-7.793 4.5195-12.297v-192.46c-0.003906-3.3711-0.90234-6.6758-2.6094-9.582-1.707-2.9062-4.1562-5.3047-7.1016-6.9453zm-131.61 135.49v-45.465c0-7.8477 6.3594-14.207 14.207-14.207h11.887v73.879h-11.887c-7.8477 0-14.207-6.3633-14.207-14.207zm112.9 56.828-58.395-35.801v-87.52l58.391-35.613z"/>
  <path d="m422.08 326.46c-5.543 5.5469-5.543 14.531 0 20.078 7.7891 7.8047 12.164 18.383 12.164 29.41s-4.375 21.605-12.164 29.41c-5.5469 5.5859-5.5156 14.605 0.070313 20.152 5.582 5.543 14.605 5.5117 20.152-0.074219 13.098-13.137 20.457-30.934 20.457-49.488s-7.3594-36.352-20.457-49.488c-2.6719-2.7031-6.3125-4.2266-10.113-4.2266-3.8008 0-7.4414 1.5234-10.109 4.2266z"/>
  <path d="m471.43 287.06c-5.543 5.5469-5.543 14.535 0 20.082 18.215 18.277 28.445 43.027 28.445 68.832 0 25.805-10.23 50.559-28.445 68.836-5.2188 5.5977-5.0625 14.32 0.34766 19.73 5.4102 5.4102 14.133 5.5664 19.73 0.34766 23.551-23.605 36.777-55.59 36.777-88.938 0-33.344-13.227-65.332-36.777-88.938-5.5586-5.5273-14.547-5.5039-20.078 0.046875z"/>
 </g>
</svg>
