<?xml version="1.0" encoding="UTF-8"?>
<svg width="752pt" height="752pt" version="1.1" viewBox="0 0 752 752" xmlns="http://www.w3.org/2000/svg" fill="white">
 <path d="m324.11 309.09c6.168-0.015625 12.078-2.4727 16.438-6.832 4.3594-4.3633 6.8125-10.273 6.8242-16.438 0.011718-3.0078-0.56641-5.9844-1.6992-8.7656l32.59-23.727c4.1914 3.4883 9.4688 5.4102 14.922 5.4414 7.7461-0.003907 14.98-3.8672 19.301-10.297l26.66 9.7188c-0.078125 0.76563-0.13281 1.6602-0.13281 2.4297 0 8.3164 4.4375 15.996 11.637 20.156 7.1992 4.1562 16.07 4.1562 23.273 0 7.1992-4.1602 11.633-11.84 11.633-20.156 0.003906-2.9805-0.57422-5.9375-1.7031-8.6953l32.621-23.727c5.4609 4.5703 12.715 6.3945 19.691 4.9453 6.9727-1.4492 12.902-6.0039 16.098-12.371 3.1914-6.3672 3.3008-13.848 0.28906-20.301-3.0117-6.457-8.8086-11.18-15.742-12.828-6.9297-1.6445-14.23-0.027344-19.824 4.3867-5.5898 4.4141-8.8555 11.141-8.8633 18.266-0.007813 3 0.57031 5.9766 1.6992 8.7578l-32.59 23.727v-0.003906c-4.1914-3.4844-9.4688-5.4062-14.922-5.4336-7.7305 0.011719-14.949 3.8672-19.254 10.293l-26.699-9.7148c0.082031-0.82812 0.12109-1.6641 0.12109-2.4297h0.003907c0.019531-6.9609-3.0781-13.566-8.4414-18.004-5.3633-4.4375-12.434-6.2383-19.266-4.9141-6.832 1.3242-12.715 5.6367-16.035 11.758-3.3164 6.1211-3.7188 13.402-1.1016 19.852l-32.617 23.793c-4.543-3.8164-10.375-5.75-16.297-5.4023-5.9258 0.34375-11.492 2.9414-15.562 7.2617-4.0703 4.3164-6.3359 10.027-6.332 15.961 0.015625 6.168 2.4727 12.082 6.8359 16.441 4.3633 4.3633 10.273 6.8164 16.441 6.832zm-122.35 212.04c1.3906 0 2.7227-0.55078 3.7031-1.5352 0.98047-0.98828 1.5234-2.3242 1.5117-3.7109 0-2.8789-2.332-5.2109-5.207-5.2109-2.8789 0-5.2109 2.332-5.2109 5.2109-0.011719 1.3867 0.53125 2.7227 1.5078 3.707s2.3086 1.5391 3.6953 1.5391zm0-21.68c4.3828-0.003906 8.5859 1.7344 11.684 4.832s4.8359 7.2969 4.832 11.68c-0.003907 4.3789-1.75 8.5781-4.8516 11.672s-7.3047 4.8242-11.688 4.8125c-4.3789-0.007813-8.5742-1.7617-11.664-4.8672-3.0859-3.1094-4.8125-7.3164-4.793-11.695 0.015625-4.3633 1.7617-8.5391 4.8516-11.617 3.0859-3.0781 7.2695-4.8125 11.629-4.8164zm-54.852-114h83.547v154.11h-83.547zm167.42 21.551h-72.602v115.48l174.09 41.055c12.387 3.2656 25.578 1.125 36.301-5.8867l144.75-92.973c5.1484-3.1914 8.2578-8.8438 8.1914-14.902l0.039063-7.6758 0.003906 0.003907c0.027344-2.5781-1.1289-5.0273-3.1328-6.6484-2.0039-1.6172-4.6406-2.2305-7.1562-1.6641l-88.84 19.953v1.2109l-0.03125 6.2695h0.003906c-0.042969 7.1328-2.7109 14-7.4922 19.297-4.7812 5.293-11.344 8.6445-18.434 9.4141l-105.46 11.711c-4.5625 0.48828-9.1758-0.10547-13.465-1.7266l-46.879-17.715c-2.9141-1.0977-4.3867-4.3438-3.293-7.2578 1.0977-2.9141 4.3477-4.3867 7.2578-3.2891l46.895 17.711c2.625 1.0273 5.4609 1.3984 8.2617 1.0859l105.45-11.711v-0.003906c4.3555-0.44531 8.3906-2.4883 11.324-5.7344 2.9336-3.25 4.5586-7.4727 4.5625-11.848l0.046875-6.2695c0.03125-2.2617-0.84375-4.4375-2.4297-6.0508-1.5859-1.6094-3.7539-2.5156-6.0156-2.5156h-100.62c-6.3125 0.097656-12.473-1.957-17.465-5.8203l-37.523-28.074h-0.003906c-4.6641-3.6133-10.422-5.5273-16.324-5.4297zm-7.1289-65.691h33.82v64.793l-3.6172-2.6836h0.003906c-6.6055-5.0977-14.734-7.8242-23.078-7.7383h-7.1289zm102.93-50.309v144.07h-24.48c-3.3047 0.058594-6.5508-0.85156-9.3438-2.6211v-141.45zm35.27 25.191h33.832v118.88h-33.828v-118.88zm69.102-50.414h33.816v166.87l-33.797 7.6055z" fill-rule="evenodd"/>
</svg>
