<?xml version="1.0" encoding="UTF-8"?>
<svg width="752pt" height="752pt" version="1.1" viewBox="0 0 752 752" xmlns="http://www.w3.org/2000/svg">
 <g fill="white">
  <path d="m579.34 261.75c-1.4805-0.22266-23.086-3.0352-52.094-5.4023-11.617-0.96094-22.863-1.6289-33.445-2.1445-47.434-2.2188-81.914 0-102.71 6.6602-2.0703-6.1406-6.6602-7.25-15.168-7.25-8.2891 0-12.949 1.1836-15.094 7.1758-53.203-16.797-182.7 0.22266-188.32 0.96094-3.1836 0.44531-5.625 3.1836-5.625 6.4375v215.41c0 1.8516 0.8125 3.625 2.2188 4.8828 1.4805 1.332 3.4023 1.8516 5.2539 1.5547 5.6992-0.73828 139.48-17.758 185.51-0.37109 1.7031 7.4727 7.25 9.0273 15.984 9.0273 8.7305 0 14.281-1.5547 15.984-9.0273 46.176-17.391 179.81-0.37109 185.59 0.37109 1.8516 0.29688 3.6992-0.29688 5.1797-1.5547 1.4062-1.2578 2.2188-3.0352 2.2188-4.8828l-0.003907-215.41c0.22266-3.2539-2.2188-5.9922-5.4766-6.4375zm-220.07 213.93c-15.539-4.5859-38.477-6.957-68.152-6.957-44.77 0-93.234 5.3281-111.14 7.4727l0.003906-202.3c27.676-3.3281 137.12-15.242 179.37 0v201.79zm20.426 9.9141c-1.4805 0.14844-5.9922 0.074218-7.3984 0-0.074219-0.96094-0.074219-2.3672-0.074219-4.293v-210.38l0.14844-0.8125c0.074219-1.1836 0.14844-2.5156 0.22266-3.4766 1.1836-0.074218 2.7383-0.074218 3.4023-0.074218h3.3281c0.14844 1.1094 0.22266 2.5898 0.29688 3.4766l0.14844 211.26c-0.003906 2-0.074219 3.4062-0.074219 4.293zm120.32-218.07c2.3672 0.14844 4.7344 0.29687 7.1758 0.37109l2.5156 0.14844c3.4766 0.22266 7.0312 0.51953 10.582 0.73828v17.316l-5.8477-5.1797c-1.2578-1.1094-2.8125-1.6289-4.293-1.6289-1.5547 0-3.1094 0.51953-4.293 1.6289l-5.8477 5.1797zm72.074 208.74c-17.758-2.1445-66.004-7.4727-111.07-7.4727-25.973 0-50.91 1.7773-68.227 6.8828v-201.79c17.684-6.3633 50.172-8.7305 94.348-7.0312v33.668c0 2.5898 1.4805 4.8828 3.8477 5.918 2.293 1.0352 5.0312 0.59375 6.957-1.0352l12.285-10.953 12.285 10.953c0.8125 0.73828 1.7773 1.1836 3.4766 1.5547l0.88672 0.074218c0.88672 0 1.7773-0.22266 2.6641-0.59375 2.293-1.0352 3.8477-3.3281 3.8477-5.918v-30.707c16.945 1.4805 30.781 3.0352 38.848 3.9961v202.45z"/>
  <path d="m191.68 320.65c-3.3281 1.2578-5.1055 4.957-3.8477 8.2891 0.96094 2.5156 3.4023 4.2188 6.0664 4.2188 0.73828 0 1.4805-0.14844 2.2188-0.37109 57.348-20.941 138-6.3633 138.89-6.2148 3.5508 0.59375 6.8828-1.7031 7.4727-5.1797 0.66406-3.4766-1.7031-6.8828-5.1797-7.5469-3.4727-0.59766-85.094-15.32-145.62 6.8047z"/>
  <path d="m337.3 365.35c-3.4766-0.59375-85.246-15.242-145.62 6.8086-3.3281 1.2578-5.1055 4.957-3.8477 8.2891 0.96094 2.5156 3.4023 4.2188 6.0664 4.2188 0.73828 0 1.4805-0.14844 2.2188-0.37109 56.902-20.793 138-6.3633 138.89-6.2148 3.625 0.59375 6.8086-1.7031 7.4727-5.1797 0.67188-3.4844-1.6992-6.8867-5.1758-7.5508z"/>
  <path d="m337.3 416.92c-3.4766-0.66406-85.32-15.242-145.62 6.8086-3.3281 1.2578-5.1055 4.957-3.8477 8.2891 0.96094 2.5156 3.4023 4.2188 6.0664 4.2188 0.73828 0 1.4805-0.14844 2.2188-0.37109 56.902-20.793 138-6.3633 138.89-6.2148 3.5508 0.51953 6.8086-1.7031 7.4727-5.1797 0.67188-3.5547-1.6992-6.957-5.1758-7.5508z"/>
  <path d="m414.7 313.84c-3.5508 0.66406-5.8477 4.0703-5.1797 7.5469 0.66406 3.4766 3.9219 5.7734 7.5469 5.1797 0.8125-0.14844 81.766-14.578 138.82 6.2148 0.73828 0.29688 1.4805 0.37109 2.2188 0.37109 2.7383 0 5.1797-1.7031 6.0664-4.2188 1.2578-3.3281-0.51953-7.1055-3.8477-8.2891-60.457-22.047-142.15-7.3984-145.62-6.8047z"/>
  <path d="m560.33 372.15c-60.086-21.902-142.15-7.3984-145.62-6.8086-3.4766 0.66406-5.8477 3.9961-5.1797 7.5469 0.66406 3.4023 3.9961 5.6992 7.5469 5.1797 0.8125-0.14844 81.398-14.801 138.82 6.2148 0.73828 0.29688 1.4805 0.37109 2.2188 0.37109 2.7383 0 5.1797-1.7031 6.0664-4.2188 1.2578-3.3242-0.51953-7.1016-3.8477-8.2852z"/>
  <path d="m560.33 423.66c-60.457-22.051-142.15-7.3984-145.62-6.8086-3.4766 0.66406-5.8477 3.9961-5.1797 7.5469 0.66406 3.4023 3.9219 5.6992 7.5469 5.1797 0.8125-0.14844 81.324-14.801 138.75 6.2148 0.73828 0.29688 1.4805 0.37109 2.2188 0.37109 2.7383 0 5.1797-1.7031 6.0664-4.2188 1.332-3.3281-0.44531-7.0273-3.7734-8.2852z"/>
 </g>
</svg>
